<svg width="1200" height="900" viewBox="0 0 1200 900" fill="none" xmlns="http://www.w3.org/2000/svg">
  <defs>
    <linearGradient id="g1" x1="130" y1="90" x2="1070" y2="810" gradientUnits="userSpaceOnUse">
      <stop stop-color="#0F172A"/>
      <stop offset="1" stop-color="#111827"/>
    </linearGradient>
    <radialGradient id="g2" cx="0" cy="0" r="1" gradientUnits="userSpaceOnUse" gradientTransform="translate(420 250) rotate(48) scale(640 460)">
      <stop stop-color="#6366F1" stop-opacity="0.40"/>
      <stop offset="1" stop-color="#6366F1" stop-opacity="0"/>
    </radialGradient>
    <radialGradient id="g3" cx="0" cy="0" r="1" gradientUnits="userSpaceOnUse" gradientTransform="translate(820 640) rotate(38) scale(460 360)">
      <stop stop-color="#22D3EE" stop-opacity="0.32"/>
      <stop offset="1" stop-color="#22D3EE" stop-opacity="0"/>
    </radialGradient>
  </defs>
  <rect width="1200" height="900" rx="64" fill="url(#g1)"/>
  <rect width="1200" height="900" rx="64" fill="url(#g2)"/>
  <rect width="1200" height="900" rx="64" fill="url(#g3)"/>
  <g opacity="0.9">
    <rect x="140" y="130" width="920" height="560" rx="36" fill="#0B1020" stroke="#FFFFFF" stroke-opacity="0.10"/>
    <rect x="190" y="200" width="520" height="26" rx="13" fill="#FFFFFF" fill-opacity="0.14"/>
    <rect x="190" y="250" width="420" height="18" rx="9" fill="#FFFFFF" fill-opacity="0.10"/>
    <rect x="190" y="290" width="370" height="18" rx="9" fill="#FFFFFF" fill-opacity="0.10"/>
    <rect x="190" y="340" width="380" height="16" rx="8" fill="#FFFFFF" fill-opacity="0.08"/>
    <rect x="190" y="380" width="300" height="16" rx="8" fill="#FFFFFF" fill-opacity="0.08"/>
    <rect x="190" y="460" width="160" height="54" rx="27" fill="#6366F1" fill-opacity="0.70"/>
    <circle cx="860" cy="390" r="170" fill="#FFFFFF" fill-opacity="0.06"/>
    <circle cx="860" cy="390" r="112" fill="#FFFFFF" fill-opacity="0.08"/>
    <circle cx="860" cy="390" r="50" fill="#FFFFFF" fill-opacity="0.12"/>
  </g>
  <text x="190" y="580" fill="#E5E7EB" fill-opacity="0.7" font-family="Arial, sans-serif" font-size="38" font-weight="700">Project Preview</text>
  <text x="190" y="620" fill="#CBD5E1" fill-opacity="0.55" font-family="Arial, sans-serif" font-size="22">Placeholder visual for projects</text>
</svg>